/* XPM */
static char *icon[] = {
/* columns rows colors chars-per-pixel */
"128 128 67 1 ",
"  c black",
". c #0F0F0F",
"X c #121212",
"o c #777777",
"O c gray50",
"+ c #FF0000",
"@ c #FF0B0B",
"# c #FF1515",
"$ c #FF1D1D",
"% c #FF2424",
"& c #FF2D2D",
"* c #FF3232",
"= c #FF3C3C",
"- c #FF4242",
"; c #FF4D4D",
": c #FF5454",
"> c #FF6666",
", c #FF6C6C",
"< c #FF7070",
"1 c #FF7C7C",
"2 c #0000FF",
"3 c #0B0BFF",
"4 c #1313FF",
"5 c #1C1CFF",
"6 c #2323FF",
"7 c #2D2DFF",
"8 c #3232FF",
"9 c #3C3CFF",
"0 c #4242FF",
"q c #4D4DFF",
"w c #5454FF",
"e c #5F5FFF",
"r c #6363FF",
"t c #6D6DFF",
"y c #7777FF",
"u c #7C7CFF",
"i c #858585",
"p c #888888",
"a c #FF8484",
"s c #FF8888",
"d c #FF9090",
"f c #FFA3A3",
"g c #FFB2B2",
"h c #FFBCBC",
"j c #8585FF",
"k c #8888FF",
"l c #9090FF",
"z c #A3A3FF",
"x c #B3B3FF",
"c c #BDBDFF",
"v c gray78",
"b c #CBCBCB",
"n c #FFC3C3",
"m c #FFCBCB",
"M c #FFD7D7",
"N c #FFDBDB",
"B c #C4C4FF",
"V c #CBCBFF",
"C c #D4D4FF",
"Z c #DBDBFF",
"A c #FFE6E6",
"S c #FFE9E9",
"D c #E5E5FF",
"F c #E9E9FF",
"G c #FFF5F5",
"H c #F5F5FF",
"J c #FFFFFF",
/* pixels */
"JJJJJJJJJJJJJJJJ322222222222222222222222222222222222222222222222222222222222222222222222222222222222222222222223JJJJJJJJJJJJJJJJ",
"JJJJJJJJJJJJJJJJ522222222222222222222222222222222222222222222222222222222222222222222222222222222222222222222225JJJJJJJJJJJJJJJJ",
"JJJJJJJJJJJJJJJJ722222222222222222222222222222222222222222222222222222222222222222222222222222222222222222222228JJJJJJJJJJJJJJJJ",
"JJJJJJJJJJJJJJJJq2222222222222222222222222222222222222222222222222222222222222222222222222222222222222222222222qJJJJJJJJJJJJJJJJ",
"JJJJJJJJJJJJJJJJj2222222222222222222222222222222222222222222222222222222222222222222222222222222222222222222222kJJJJJJJJJJJJJJJJ",
"JJJJJJJJJJJJJJJJB2222222222222222222222222222222222222222222222222222222222222222222222222222222222222222222222BJJJJJJJJJJJJJJJJ",
"JJJJJJJJJJJJJJJJH3222222222222222222222222222222222222222222222222222222222222222222222222222222222222222222223HJJJJJJJJJJJJJJJJ",
"JJJJJJJJJJJJJJJJJe22222222222222222222222222222222222222222222222222222222222222222222222222222222222222222222rJJJJJJJJJJJJJJJJJ",
"JJJJJJJJJJJJJJJJJB22222222222222222222222222222222222222222222222222222222222222222222222222222222222222222222BJJJJJJJJJJJJJJJJJ",
"JJJJJJJJJJJJJJJJJJ72222222222222222222222222222222222222222222222222222222222222222222222222222222222222222228JJJJJJJJJJJJJJJJJJ",
"JJJJJJJJJJJJJJJJJJx222222222222222222222222222222222222222222222222222222222222222222222222222222222222222222xJJJJJJJJJJJJJJJJJJ",
"JJJJJJJJJJJJJJJJJJJ022222222222222222222222222222222222222222222222222222222222222222222222222222222222222229JJJJJJJJJJJJJJJJJJJ",
"JJJJJJJJJJJJJJJJJJJV2222222222222222222222222222222222222222222222222222222222222222222222222222222222222223VJJJJJJJJJJJJJJJJJJJ",
"JJJJJJJJJJJJJJJJJJJJj22222222222222222222222222222222222222222222222222222222222222222222222222222222222222kJJJJJJJJJJJJJJJJJJJJ",
"JJJJJJJJJJJJJJJJJJJJJ02222222222222222222222222222222222222222222222222222222222222222222222222222222222220HJJJJJJJJJJJJJJJJJJJJ",
"JJJJJJJJJJJJJJJJJJJJJD622222222222222222222222222222222222222222222222222222222222222222222222222222222226DJJJJJJJJJJJJJJJJJJJJJ",
"@$*;ahGJJJJJJJJJJJJJJJZ4222222222222222222222222222222222222222222222222222222222222222222222222222222224ZJJJJJJJJJJJJJJJGna;&$@",
"++++++@:hJJJJJJJJJJJJJJV32222222222222222222222222222222222222222222222222222222222222222222222222222224VJJJJJJJJJJJJJJm>@++++++",
"+++++++++&gJJJJJJJJJJJJJV522222222222222222222222222222222222222222222222222222222222222222222222222224VJJJJJJJJJJJJJg&+++++++++",
"+++++++++++=mJJJJJJJJJJJJZ6222222222222222222222222222222222222222222222222222222222222222222222222226ZJJJJJJJJJJJJm=+++++++++++",
"+++++++++++++aJJJJJJJJJJJJF02222222222222222222222222222222222222222222222222222222222222222222222220FJJJJJJJJJJJJd+++++++++++++",
"++++++++++++++-AJJJJJJJJJJJJl2222222222222222222222222222222222222222222222222222222222222222222222uJJJJJJJJJJJJA-++++++++++++++",
"+++++++++++++++$MJJJJJJJJJJJJB72222222222222222222222222222222222222222222222222222222222222222226VJJJJJJJJJJJJM$+++++++++++++++",
"++++++++++++++++#nJJJJJJJJJJJJHl3222222222222222222222222222222222222222222222222222222222222223jHJJJJJJJJJJJJm#++++++++++++++++",
"+++++++++++++++++@mJJJJJJJJJJJJJZw222222222222222222222222222222222222222222222222222222222222wZJJJJJJJJJJJJJm@+++++++++++++++++",
"++++++++++++++++++#MJJJJJJJJJJJJJJCw222222222222222222222222222222222222222222222222222222220VJJJJJJJJJJJJJJN#++++++++++++++++++",
"+++++++++++++++++++%SJJJJJJJJJJJJJJJVw2222222222222222222222222222222222222222222222222222wCJJJJJJJJJJJJJJJS%+++++++++++++++++++",
"++++++++++++++++++++=JJJJJJJJJJJJJJJJJFk622222222222222222222222222222222222222222222225yDJJJJJJJJJJJJJJJJJ-++++++++++++++++++++",
"+++++++++++++++++++++aJJJJJJJJJJJJJJJJJJJct522222222222222222222222222222222222222225tBHJJJJJJJJJJJJJJJJJJa+++++++++++++++++++++",
"++++++++++++++++++++++nJJJJJJJJJJJJJJJJJJJJJVy922222222222222222222222222222222229yVJJJJJJJJJJJJJJJJJJJJJn++++++++++++++++++++++",
"++++++++++++++++++++++%GJJJJJJJJJJJJJJJJJJJJJJJHcjw62222222222222222222222226wjcHJJJJJJJJJJJJJJJJJJJJJJJG%++++++++++++++++++++++",
"+++++++++++++++++++++++aJJJJJJJJJJJJJJJJJJJJJJJJJJJJHVzktw966442244669wykzVHJJJJJJJJJJJJJJJJJJJJJJJJJJJJ1+++++++++++++++++++++++",
"+++++++++++++++++++++++@NJJJJJJJJJJJJJJJJJJJJJJJJJJJJJJJJJJJJJJJJJJJJJJJJJJJJJJJJJJJJJJJJJJJJJJJJJJJJJJM@+++++++++++++++++++++++",
"++++++++++++++++++++++++;JJJJJJJJJJJJJJJJJJJJJJJJJJJJJJJJJJJJJJJJJJJJJJJJJJJJJJJJJJJJJJJJJJJJJJJJJJJJJJ;++++++++++++++++++++++++",
"+++++++++++++++++++++++++mJJJJJJJJJJJJJJJJJJJJJJJJJJJJJJJJJJJJJJJJJJJJJJJJJJJJJJJJJJJJJJJJJJJJJJJJJJJJm+++++++++++++++++++++++++",
"+++++++++++++++++++++++++;JJJJJJJJJJJJJJJJJJJJJJJJJJJJJJJJJJJJJJJJJJJJJJJJJJJJJJJJJJJJJJJJJJJJJJJJJJJJ;+++++++++++++++++++++++++",
"++++++++++++++++++++++++++mJJJJJJJJJJJJJJJJJJJJJJJJJJJJJJJJJJJJJJJJJJJJJJJJJJJJJJJJJJJJJJJJJJJJJJJJJJm++++++++++++++++++++++++++",
"++++++++++++++++++++++++++:JJJJJJJJJJJJJJJpvJJJJJJJJJJJJJJJJJJJJJJJJJJJJJJJJJJJJJJJJvpJJJJJJJJJJJJJJJ:++++++++++++++++++++++++++",
"+++++++++++++++++++++++++++AJJJJJJJJJJJJJO .vJJJJJJJJJJJJJJJJJJJJJJJJJJJJJJJJJJJJJJbX oJJJJJJJJJJJJJS+++++++++++++++++++++++++++",
"+++++++++++++++++++++++++++sJJJJJJJJJJJJO   .vJJJJJJJJJJJJJJJJJJJJJJJJJJJJJJJJJJJJbX   oJJJJJJJJJJJJa+++++++++++++++++++++++++++",
"+++++++++++++++++++++++++++$JJJJJJJJJJJi     .vJJJJJJJJJJJJJJJJJJJJJJJJJJJJJJJJJJbX     oJJJJJJJJJJJ$+++++++++++++++++++++++++++",
"++++++++++++++++++++++++++++hJJJJJJJJJO       .vJJJJJJJJJJJJJJJJJJJJJJJJJJJJJJJJbX       oJJJJJJJJJh++++++++++++++++++++++++++++",
"++++++++++++++++++++++++++++,JJJJJJJJp         .vJJJJJJJJJJJJJJJJJJJJJJJJJJJJJJvX         pJJJJJJJJ>++++++++++++++++++++++++++++",
"++++++++++++++++++++++++++++$JJJJJJJJbX         .vJJJJJJJJJJJJJJJJJJJJJJJJJJJJbX         .vJJJJJJJJ$++++++++++++++++++++++++++++",
"+++++++++++++++++++++++++++++mJJJJJJJJbX         .vJJJJJJJJJJJJJJJJJJJJJJJJJJbX         XvJJJJJJJJn+++++++++++++++++++++++++++++",
"+++++++++++++++++++++++++++++1JJJJJJJJJbX         .vJJJJJJJJJJJJJJJJJJJJJJJJbX         .vJJJJJJJJJ1+++++++++++++++++++++++++++++",
"+++++++++++++++++++++++++++++=JJJJJJJJJJbX         .vJJJJJJJJJJJJJJJJJJJJJJbX         .vJJJJJJJJJJ*+++++++++++++++++++++++++++++",
"++++++++++++++++++++++++++++++GJJJJJJJJJJbX         .vJJJJJJJJJJJJJJJJJJJJbX         XvJJJJJJJJJJG++++++++++++++++++++++++++++++",
"++++++++++++++++++++++++++++++hJJJJJJJJJJJbX         XvJJJJJJJJJJJJJJJJJJbX         .vJJJJJJJJJJJh++++++++++++++++++++++++++++++",
"++++++++++++++++++++++++++++++aJJJJJJJJJJJJbX         XvJJJJJJJJJJJJJJJJbX         .vJJJJJJJJJJJJ1++++++++++++++++++++++++++++++",
"++++++++++++++++++++++++++++++:JJJJJJJJJJJJJbX         .vJJJJJJJJJJJJJJbX         XvJJJJJJJJJJJJJ;++++++++++++++++++++++++++++++",
"++++++++++++++++++++++++++++++%JJJJJJJJJJJJJJbX         .vJJJJJJJJJJJJbX         .vJJJJJJJJJJJJJJ%++++++++++++++++++++++++++++++",
"+++++++++++++++++++++++++++++++GJJJJJJJJJJJJJJbX         .vJJJJJJJJJJbX         .vJJJJJJJJJJJJJJG+++++++++++++++++++++++++++++++",
"+++++++++++++++++++++++++++++++mJJJJJJJJJJJJJJJbX         .vJJJJJJJJbX         .vJJJJJJJJJJJJJJJn+++++++++++++++++++++++++++++++",
"+++++++++++++++++++++++++++++++fJJJJJJJJJJJJJJJJbX         .vJJJJJJbX         XvJJJJJJJJJJJJJJJJf+++++++++++++++++++++++++++++++",
"+++++++++++++++++++++++++++++++sJJJJJJJJJJJJJJJJJbX         .vJJJJbX         .vJJJJJJJJJJJJJJJJJa+++++++++++++++++++++++++++++++",
"+++++++++++++++++++++++++++++++<JJJJJJJJJJJJJJJJJJbX         .vJJbX         .vJJJJJJJJJJJJJJJJJJ,+++++++++++++++++++++++++++++++",
"+++++++++++++++++++++++++++++++:JJJJJJJJJJJJJJJJJJJbX         .vbX         .vJJJJJJJJJJJJJJJJJJJ:+++++++++++++++++++++++++++++++",
"+++++++++++++++++++++++++++++++=JJJJJJJJJJJJJJJJJJJJbX         ..         XvJJJJJJJJJJJJJJJJJJJJ*+++++++++++++++++++++++++++++++",
"+++++++++++++++++++++++++++++++&JJJJJJJJJJJJJJJJJJJJJbX                  .vJJJJJJJJJJJJJJJJJJJJJ%+++++++++++++++++++++++++++++++",
"+++++++++++++++++++++++++++++++$JJJJJJJJJJJJJJJJJJJJJJbX                XvJJJJJJJJJJJJJJJJJJJJJJ$+++++++++++++++++++++++++++++++",
"+++++++++++++++++++++++++++++++$JJJJJJJJJJJJJJJJJJJJJJJbX              .vJJJJJJJJJJJJJJJJJJJJJJJ#+++++++++++++++++++++++++++++++",
"+++++++++++++++++++++++++++++++@JJJJJJJJJJJJJJJJJJJJJJJJbX            .vJJJJJJJJJJJJJJJJJJJJJJJJ@+++++++++++++++++++++++++++++++",
"++++++++++++++++++++++++++++++++JJJJJJJJJJJJJJJJJJJJJJJJJbX          .vJJJJJJJJJJJJJJJJJJJJJJJJJ++++++++++++++++++++++++++++++++",
"++++++++++++++++++++++++++++++++JJJJJJJJJJJJJJJJJJJJJJJJJb.          .vJJJJJJJJJJJJJJJJJJJJJJJJJ++++++++++++++++++++++++++++++++",
"+++++++++++++++++++++++++++++++@JJJJJJJJJJJJJJJJJJJJJJJJbX            .vJJJJJJJJJJJJJJJJJJJJJJJJ@+++++++++++++++++++++++++++++++",
"+++++++++++++++++++++++++++++++#JJJJJJJJJJJJJJJJJJJJJJJbX              XvJJJJJJJJJJJJJJJJJJJJJJJ#+++++++++++++++++++++++++++++++",
"+++++++++++++++++++++++++++++++$JJJJJJJJJJJJJJJJJJJJJJbX                .vJJJJJJJJJJJJJJJJJJJJJJ$+++++++++++++++++++++++++++++++",
"+++++++++++++++++++++++++++++++&JJJJJJJJJJJJJJJJJJJJJbX                  .vJJJJJJJJJJJJJJJJJJJJJ&+++++++++++++++++++++++++++++++",
"+++++++++++++++++++++++++++++++=JJJJJJJJJJJJJJJJJJJJbX         ..         .vJJJJJJJJJJJJJJJJJJJJ*+++++++++++++++++++++++++++++++",
"+++++++++++++++++++++++++++++++:JJJJJJJJJJJJJJJJJJJbX         XvbX         .vJJJJJJJJJJJJJJJJJJJ:+++++++++++++++++++++++++++++++",
"+++++++++++++++++++++++++++++++<JJJJJJJJJJJJJJJJJJbX         .vJJbX         .vJJJJJJJJJJJJJJJJJJ,+++++++++++++++++++++++++++++++",
"+++++++++++++++++++++++++++++++sJJJJJJJJJJJJJJJJJbX         .vJJJJbX         .vJJJJJJJJJJJJJJJJJa+++++++++++++++++++++++++++++++",
"+++++++++++++++++++++++++++++++fJJJJJJJJJJJJJJJJbX         .vJJJJJJbX         .vJJJJJJJJJJJJJJJJf+++++++++++++++++++++++++++++++",
"+++++++++++++++++++++++++++++++mJJJJJJJJJJJJJJJbX         .vJJJJJJJJbX         .vJJJJJJJJJJJJJJJm+++++++++++++++++++++++++++++++",
"+++++++++++++++++++++++++++++++GJJJJJJJJJJJJJJbX         XvJJJJJJJJJJbX         .vJJJJJJJJJJJJJJG+++++++++++++++++++++++++++++++",
"++++++++++++++++++++++++++++++%JJJJJJJJJJJJJJbX         XvJJJJJJJJJJJJbX         .vJJJJJJJJJJJJJJ%++++++++++++++++++++++++++++++",
"++++++++++++++++++++++++++++++:JJJJJJJJJJJJJbX         .vJJJJJJJJJJJJJJbX         .vJJJJJJJJJJJJJ;++++++++++++++++++++++++++++++",
"++++++++++++++++++++++++++++++aJJJJJJJJJJJJbX         XvJJJJJJJJJJJJJJJJbX         .vJJJJJJJJJJJJ1++++++++++++++++++++++++++++++",
"++++++++++++++++++++++++++++++hJJJJJJJJJJJbX         .vJJJJJJJJJJJJJJJJJJbX         .vJJJJJJJJJJJh++++++++++++++++++++++++++++++",
"++++++++++++++++++++++++++++++JJJJJJJJJJJbX         .vJJJJJJJJJJJJJJJJJJJJbX         XvJJJJJJJJJJG++++++++++++++++++++++++++++++",
"+++++++++++++++++++++++++++++=JJJJJJJJJJbX         .vJJJJJJJJJJJJJJJJJJJJJJbX         XvJJJJJJJJJJ=+++++++++++++++++++++++++++++",
"+++++++++++++++++++++++++++++1JJJJJJJJJbX         .vJJJJJJJJJJJJJJJJJJJJJJJJbX         .vJJJJJJJJJ1+++++++++++++++++++++++++++++",
"+++++++++++++++++++++++++++++nJJJJJJJJbX         XvJJJJJJJJJJJJJJJJJJJJJJJJJJbX         .vJJJJJJJJn+++++++++++++++++++++++++++++",
"++++++++++++++++++++++++++++$JJJJJJJJbX         XvJJJJJJJJJJJJJJJJJJJJJJJJJJJJbX         .vJJJJJJJJ$++++++++++++++++++++++++++++",
"++++++++++++++++++++++++++++,JJJJJJJJp         .vJJJJJJJJJJJJJJJJJJJJJJJJJJJJJJv.         pJJJJJJJJ>++++++++++++++++++++++++++++",
"++++++++++++++++++++++++++++nJJJJJJJJJp       XvJJJJJJJJJJJJJJJJJJJJJJJJJJJJJJJJbX       iJJJJJJJJJh++++++++++++++++++++++++++++",
"+++++++++++++++++++++++++++%JJJJJJJJJJJp     .vJJJJJJJJJJJJJJJJJJJJJJJJJJJJJJJJJJbX     OJJJJJJJJJJJ%+++++++++++++++++++++++++++",
"+++++++++++++++++++++++++++aJJJJJJJJJJJJp   .vJJJJJJJJJJJJJJJJJJJJJJJJJJJJJJJJJJJJbX   OJJJJJJJJJJJJa+++++++++++++++++++++++++++",
"++++++++++++++++++++++++++@SJJJJJJJJJJJJJp .vJJJJJJJJJJJJJJJJJJJJJJJJJJJJJJJJJJJJJJbX iJJJJJJJJJJJJJA+++++++++++++++++++++++++++",
"++++++++++++++++++++++++++:JJJJJJJJJJJJJJJpvJJJJJJJJJJJJJJJJJJJJJJJJJJJJJJJJJJJJJJJJvpJJJJJJJJJJJJJJJ:++++++++++++++++++++++++++",
"++++++++++++++++++++++++++mJJJJJJJJJJJJJJJJJJJJJJJJJJJJJJJJJJJJJJJJJJJJJJJJJJJJJJJJJJJJJJJJJJJJJJJJJJm++++++++++++++++++++++++++",
"+++++++++++++++++++++++++;JJJJJJJJJJJJJJJJJJJJJJJJJJJJJJJJJJJJJJJJJJJJJJJJJJJJJJJJJJJJJJJJJJJJJJJJJJJJ;+++++++++++++++++++++++++",
"+++++++++++++++++++++++++mJJJJJJJJJJJJJJJJJJJJJJJJJJJJJJJJJJJJJJJJJJJJJJJJJJJJJJJJJJJJJJJJJJJJJJJJJJJJm+++++++++++++++++++++++++",
"++++++++++++++++++++++++:JJJJJJJJJJJJJJJJJJJJJJJJJJJJJJJJJJJJJJJJJJJJJJJJJJJJJJJJJJJJJJJJJJJJJJJJJJJJJJ;++++++++++++++++++++++++",
"+++++++++++++++++++++++@NJJJJJJJJJJJJJJJJJJJJJJJJJJJJJJJJJJJJJJJJJJJJJJJJJJJJJJJJJJJJJJJJJJJJJJJJJJJJJJN@+++++++++++++++++++++++",
"+++++++++++++++++++++++aJJJJJJJJJJJJJJJJJJJJJJJJJJJJHVzjtw966342244669wtjzVHJJJJJJJJJJJJJJJJJJJJJJJJJJJJ1+++++++++++++++++++++++",
"++++++++++++++++++++++%JJJJJJJJJJJJJJJJJJJJJJJJHcuq62222222222222222222222226qucHJJJJJJJJJJJJJJJJJJJJJJJG%++++++++++++++++++++++",
"++++++++++++++++++++++nJJJJJJJJJJJJJJJJJJJJHBy922222222222222222222222222222222229yBHJJJJJJJJJJJJJJJJJJJJm++++++++++++++++++++++",
"+++++++++++++++++++++aJJJJJJJJJJJJJJJJJJHct522222222222222222222222222222222222222225tcJJJJJJJJJJJJJJJJJJJa+++++++++++++++++++++",
"++++++++++++++++++++-JJJJJJJJJJJJJJJJJDk622222222222222222222222222222222222222222222225yDJJJJJJJJJJJJJJJJJ-++++++++++++++++++++",
"+++++++++++++++++++%SJJJJJJJJJJJJJJJVw2222222222222222222222222222222222222222222222222222wVJJJJJJJJJJJJJJJA&+++++++++++++++++++",
"++++++++++++++++++#MJJJJJJJJJJJJJJCw222222222222222222222222222222222222222222222222222222220VJJJJJJJJJJJJJJN$++++++++++++++++++",
"+++++++++++++++++@mJJJJJJJJJJJJJZq222222222222222222222222222222222222222222222222222222222222qZJJJJJJJJJJJJJm@+++++++++++++++++",
"++++++++++++++++#nJJJJJJJJJJJJHu3222222222222222222222222222222222222222222222222222222222222222yHJJJJJJJJJJJJm#++++++++++++++++",
"+++++++++++++++%MJJJJJJJJJJJJB62222222222222222222222222222222222222222222222222222222222222222226BJJJJJJJJJJJJN%+++++++++++++++",
"++++++++++++++-AJJJJJJJJJJJJl2222222222222222222222222222222222222222222222222222222222222222222222jJJJJJJJJJJJJS-++++++++++++++",
"+++++++++++++aJJJJJJJJJJJJF02222222222222222222222222222222222222222222222222222222222222222222222220FJJJJJJJJJJJJd+++++++++++++",
"+++++++++++-mJJJJJJJJJJJJZ6222222222222222222222222222222222222222222222222222222222222222222222222226ZJJJJJJJJJJJJm-+++++++++++",
"+++++++++&gJJJJJJJJJJJJJV522222222222222222222222222222222222222222222222222222222222222222222222222224BJJJJJJJJJJJJJg&+++++++++",
"++++++@:hJJJJJJJJJJJJJJV32222222222222222222222222222222222222222222222222222222222222222222222222222223VJJJJJJJJJJJJJJm>@++++++",
"@$*;snGJJJJJJJJJJJJJJJZ4222222222222222222222222222222222222222222222222222222222222222222222222222222224CJJJJJJJJJJJJJJJGns;*$@",
"JJJJJJJJJJJJJJJJJJJJJD522222222222222222222222222222222222222222222222222222222222222222222222222222222226DJJJJJJJJJJJJJJJJJJJJJ",
"JJJJJJJJJJJJJJJJJJJJJ02222222222222222222222222222222222222222222222222222222222222222222222222222222222220JJJJJJJJJJJJJJJJJJJJJ",
"JJJJJJJJJJJJJJJJJJJJj22222222222222222222222222222222222222222222222222222222222222222222222222222222222222kJJJJJJJJJJJJJJJJJJJJ",
"JJJJJJJJJJJJJJJJJJJV2222222222222222222222222222222222222222222222222222222222222222222222222222222222222222VJJJJJJJJJJJJJJJJJJJ",
"JJJJJJJJJJJJJJJJJJJ022222222222222222222222222222222222222222222222222222222222222222222222222222222222222229JJJJJJJJJJJJJJJJJJJ",
"JJJJJJJJJJJJJJJJJJx222222222222222222222222222222222222222222222222222222222222222222222222222222222222222222xJJJJJJJJJJJJJJJJJJ",
"JJJJJJJJJJJJJJJJJJ72222222222222222222222222222222222222222222222222222222222222222222222222222222222222222227JJJJJJJJJJJJJJJJJJ",
"JJJJJJJJJJJJJJJJJB22222222222222222222222222222222222222222222222222222222222222222222222222222222222222222222BJJJJJJJJJJJJJJJJJ",
"JJJJJJJJJJJJJJJJJe22222222222222222222222222222222222222222222222222222222222222222222222222222222222222222222rJJJJJJJJJJJJJJJJJ",
"JJJJJJJJJJJJJJJJH3222222222222222222222222222222222222222222222222222222222222222222222222222222222222222222223HJJJJJJJJJJJJJJJJ",
"JJJJJJJJJJJJJJJJc2222222222222222222222222222222222222222222222222222222222222222222222222222222222222222222222BJJJJJJJJJJJJJJJJ",
"JJJJJJJJJJJJJJJJj2222222222222222222222222222222222222222222222222222222222222222222222222222222222222222222222jJJJJJJJJJJJJJJJJ",
"JJJJJJJJJJJJJJJJq2222222222222222222222222222222222222222222222222222222222222222222222222222222222222222222222qJJJJJJJJJJJJJJJJ",
"JJJJJJJJJJJJJJJJ722222222222222222222222222222222222222222222222222222222222222222222222222222222222222222222228JJJJJJJJJJJJJJJJ",
"JJJJJJJJJJJJJJJJ522222222222222222222222222222222222222222222222222222222222222222222222222222222222222222222225JJJJJJJJJJJJJJJJ",
"JJJJJJJJJJJJJJJJ322222222222222222222222222222222222222222222222222222222222222222222222222222222222222222222223JJJJJJJJJJJJJJJJ"
};
